<svg width="170" height="117" viewBox="0 0 170 117" fill="none" xmlns="http://www.w3.org/2000/svg">
<mask id="mask0" mask-type="alpha" maskUnits="userSpaceOnUse" x="0" y="0" width="170" height="117">
<rect width="170" height="117" transform="matrix(-1 0 0 1 170 0)" fill="#C4C4C4"/>
</mask>
<g mask="url(#mask0)">
<path d="M32.5073 -23C20.401 -23 10.3701 -18.8519 2.4145 -10.5556C-5.19516 -1.91359 -8.99999 9.49383 -8.99999 23.6667C-8.99999 55.4691 1.37681 80.358 22.1304 98.3333C31.1237 106.63 41.5005 112.852 53.2609 117L58.4493 104.037C51.1855 101.617 43.9217 97.642 36.658 92.1111C21.4386 80.7037 12.2725 65.6666 9.15942 47L15.9043 50.6296C21.4386 53.395 26.9729 54.7778 32.5072 54.7778C42.8841 54.7778 51.8773 50.8025 59.487 42.8518C67.4425 35.2469 71.4203 26.2593 71.4203 15.8889C71.4203 5.51851 67.4425 -3.64198 59.487 -11.5926C51.8773 -19.1975 42.8841 -23 32.5073 -23ZM131.087 -23C118.981 -23 108.95 -18.8518 100.994 -10.5556C93.3845 -1.91358 89.5797 9.49384 89.5797 23.6667C89.5797 55.4692 99.9565 80.358 120.71 98.3333C129.357 106.63 139.734 112.852 151.841 117L157.029 104.037C149.765 101.617 142.501 97.642 135.238 92.1111C120.018 80.7037 110.852 65.6667 107.739 47L114.484 50.6296C120.018 53.3951 125.553 54.7778 131.087 54.7778C141.464 54.7778 150.457 50.8025 158.067 42.8519C166.022 35.2469 170 26.2593 170 15.8889C170 5.51852 166.022 -3.64198 158.067 -11.5926C150.457 -19.1975 141.464 -23 131.087 -23Z" fill="white"/>
</g>
</svg>
